<?xml version="1.0" encoding="UTF-8"?>
<svg xmlns="http://www.w3.org/2000/svg" xmlns:xlink="http://www.w3.org/1999/xlink" width="151pt" height="37pt" viewBox="0 0 151 37" version="1.1">
	<defs>
		<clipPath id="clip1">
			<rect x="0" y="0" width="151" height="37" />
		</clipPath>
		<g id="surface5" clip-path="url(#clip1)">
			<path style=" stroke:none;fill-rule:nonzero;fill:rgb(0%,39.607843%,50.196078%);fill-opacity:1;" d="M 44.003906 12.441406 C 41.679688 12.441406 39.914062 14.285156 39.914062 17.578125 C 39.914062 20.867188 41.597656 22.714844 44.003906 22.714844 C 46.167969 22.714844 47.609375 21.429688 47.609375 19.34375 L 44.242188 19.34375 L 44.242188 17.257812 L 50.175781 17.257812 L 50.175781 19.023438 C 50.175781 22.792969 47.609375 25.121094 44.003906 25.121094 C 39.996094 25.121094 37.269531 22.230469 37.269531 17.65625 C 37.269531 12.921875 40.15625 10.113281 43.921875 10.113281 C 47.128906 10.113281 49.613281 12.121094 50.09375 15.007812 L 47.449219 15.007812 C 46.96875 13.402344 45.765625 12.441406 44.003906 12.441406 Z M 44.003906 12.441406 " />
			<path style=" stroke:none;fill-rule:nonzero;fill:rgb(0%,39.607843%,50.196078%);fill-opacity:1;" d="M 52.660156 13.964844 L 55.144531 13.964844 L 55.144531 15.8125 L 55.222656 15.8125 C 55.625 14.527344 56.664062 13.804688 57.949219 13.804688 C 58.269531 13.804688 58.667969 13.804688 58.910156 13.886719 L 58.910156 16.292969 C 58.667969 16.210938 58.109375 16.132812 57.707031 16.132812 C 56.265625 16.132812 55.222656 17.09375 55.222656 18.539062 L 55.222656 24.960938 L 52.660156 24.960938 Z M 52.660156 13.964844 " />
			<path style=" stroke:none;fill-rule:nonzero;fill:rgb(0%,39.607843%,50.196078%);fill-opacity:1;" d="M 60.433594 10.996094 C 60.433594 10.191406 61.074219 9.632812 61.957031 9.632812 C 62.757812 9.632812 63.476562 10.273438 63.476562 10.996094 C 63.476562 11.796875 62.835938 12.359375 61.957031 12.359375 C 61.074219 12.359375 60.433594 11.71875 60.433594 10.996094 Z M 60.59375 13.964844 L 63.15625 13.964844 L 63.15625 24.878906 L 60.59375 24.878906 Z M 60.59375 13.964844 " />
			<path style=" stroke:none;fill-rule:nonzero;fill:rgb(0%,39.607843%,50.196078%);fill-opacity:1;" d="M 71.414062 15.890625 L 69.089844 15.890625 L 69.089844 24.878906 L 66.523438 24.878906 L 66.523438 15.890625 L 64.921875 15.890625 L 64.921875 13.886719 L 66.523438 13.886719 L 66.523438 12.921875 C 66.523438 10.675781 68.046875 9.632812 69.96875 9.632812 C 70.851562 9.632812 71.574219 9.792969 71.894531 9.953125 L 71.414062 11.957031 C 71.171875 11.878906 70.851562 11.796875 70.449219 11.796875 C 69.488281 11.796875 69.167969 12.28125 69.167969 13.164062 L 69.167969 14.046875 L 71.414062 14.046875 Z M 71.414062 15.890625 " />
			<path style=" stroke:none;fill-rule:nonzero;fill:rgb(0%,39.607843%,50.196078%);fill-opacity:1;" d="M 78.945312 15.890625 L 76.703125 15.890625 L 76.703125 24.878906 L 74.136719 24.878906 L 74.136719 15.890625 L 72.535156 15.890625 L 72.535156 13.886719 L 74.136719 13.886719 L 74.136719 12.921875 C 74.136719 10.675781 75.660156 9.632812 77.582031 9.632812 C 78.464844 9.632812 79.1875 9.792969 79.507812 9.953125 L 79.027344 11.957031 C 78.785156 11.878906 78.464844 11.796875 78.066406 11.796875 C 77.101562 11.796875 76.78125 12.28125 76.78125 13.164062 L 76.78125 14.046875 L 79.027344 14.046875 L 79.027344 15.890625 Z M 78.945312 15.890625 " />
			<path style=" stroke:none;fill-rule:nonzero;fill:rgb(0%,39.607843%,50.196078%);fill-opacity:1;" d="M 80.789062 10.996094 C 80.789062 10.191406 81.429688 9.632812 82.3125 9.632812 C 83.113281 9.632812 83.835938 10.273438 83.835938 10.996094 C 83.835938 11.796875 83.195312 12.359375 82.3125 12.359375 C 81.429688 12.359375 80.789062 11.71875 80.789062 10.996094 Z M 80.949219 13.964844 L 83.515625 13.964844 L 83.515625 24.878906 L 80.949219 24.878906 Z M 80.949219 13.964844 " />
			<path style=" stroke:none;fill-rule:nonzero;fill:rgb(0%,39.607843%,50.196078%);fill-opacity:1;" d="M 88.722656 24.878906 L 86.160156 24.878906 L 86.160156 13.964844 L 88.644531 13.964844 L 88.644531 15.8125 L 88.804688 15.8125 C 89.285156 14.605469 90.40625 13.804688 92.089844 13.804688 C 94.335938 13.804688 95.855469 15.328125 95.855469 17.898438 L 95.855469 24.878906 L 93.292969 24.878906 L 93.292969 18.300781 C 93.292969 16.855469 92.492188 15.972656 91.128906 15.972656 C 89.765625 15.972656 88.804688 16.855469 88.804688 18.460938 L 88.804688 24.878906 Z M 88.722656 24.878906 " />
			<path style=" stroke:none;fill-rule:nonzero;fill:rgb(0%,39.607843%,50.196078%);fill-opacity:1;" d="M 103.46875 10.273438 L 109.082031 10.273438 C 112.207031 10.273438 113.808594 11.878906 113.808594 14.046875 C 113.808594 15.8125 112.6875 16.855469 111.246094 17.175781 L 111.246094 17.335938 C 112.765625 17.417969 114.371094 18.699219 114.371094 20.949219 C 114.371094 23.195312 112.765625 24.960938 109.402344 24.960938 L 103.46875 24.960938 Z M 108.761719 16.453125 C 110.121094 16.453125 111.164062 15.652344 111.164062 14.367188 C 111.164062 13.242188 110.363281 12.441406 108.839844 12.441406 L 106.195312 12.441406 L 106.195312 16.453125 Z M 109 22.632812 C 110.925781 22.632812 111.726562 21.832031 111.726562 20.625 C 111.726562 19.34375 110.683594 18.300781 109.082031 18.300781 L 106.195312 18.300781 L 106.195312 22.554688 L 109 22.554688 Z M 109 22.632812 " />
			<path style=" stroke:none;fill-rule:nonzero;fill:rgb(0%,39.607843%,50.196078%);fill-opacity:1;" d="M 116.054688 21.832031 C 116.054688 19.34375 118.058594 18.699219 120.222656 18.539062 C 122.144531 18.300781 122.945312 18.300781 122.945312 17.578125 L 122.945312 17.496094 C 122.945312 16.453125 122.304688 15.8125 121.101562 15.8125 C 119.820312 15.8125 119.097656 16.453125 118.859375 17.175781 L 116.453125 16.855469 C 117.015625 14.847656 118.777344 13.804688 121.101562 13.804688 C 123.1875 13.804688 125.511719 14.6875 125.511719 17.578125 L 125.511719 24.878906 L 123.027344 24.878906 L 123.027344 23.355469 L 122.945312 23.355469 C 122.464844 24.238281 121.421875 25.042969 119.738281 25.042969 C 117.574219 25.121094 116.054688 23.996094 116.054688 21.832031 Z M 122.867188 20.949219 L 122.867188 19.664062 C 122.546875 19.90625 121.183594 20.144531 120.542969 20.226562 C 119.417969 20.386719 118.539062 20.789062 118.539062 21.832031 C 118.539062 22.792969 119.339844 23.277344 120.382812 23.277344 C 121.902344 23.195312 122.867188 22.152344 122.867188 20.949219 Z M 122.867188 20.949219 " />
			<path style=" stroke:none;fill-rule:nonzero;fill:rgb(0%,39.607843%,50.196078%);fill-opacity:1;" d="M 130.640625 24.878906 L 128.074219 24.878906 L 128.074219 13.964844 L 130.558594 13.964844 L 130.558594 15.8125 L 130.71875 15.8125 C 131.199219 14.605469 132.324219 13.804688 134.003906 13.804688 C 136.25 13.804688 137.773438 15.328125 137.773438 17.898438 L 137.773438 24.878906 L 135.207031 24.878906 L 135.207031 18.300781 C 135.207031 16.855469 134.40625 15.972656 133.042969 15.972656 C 131.679688 15.972656 130.71875 16.855469 130.71875 18.460938 L 130.71875 24.878906 Z M 130.640625 24.878906 " />
			<path style=" stroke:none;fill-rule:nonzero;fill:rgb(0%,39.607843%,50.196078%);fill-opacity:1;" d="M 140.257812 10.273438 L 142.820312 10.273438 L 142.820312 18.300781 L 142.980469 18.300781 L 146.910156 13.886719 L 149.953125 13.886719 L 145.707031 18.621094 L 150.195312 24.878906 L 147.148438 24.878906 L 143.785156 20.226562 L 142.820312 21.269531 L 142.820312 24.878906 L 140.257812 24.878906 Z M 140.257812 10.273438 " />
		</g>
	</defs>
	<g id="surface1">
		<path style=" stroke:none;fill-rule:nonzero;fill:rgb(82.352941%,14.901961%,18.823529%);fill-opacity:1;" d="M 14.910156 37 C 14.910156 37 29.65625 29.617188 29.65625 18.460938 L 29.65625 5.539062 L 14.910156 0 L 0.164062 5.539062 L 0.164062 18.460938 C 0.164062 29.617188 14.910156 37 14.910156 37 Z M 14.910156 37 " />
		<path style=" stroke:none;fill-rule:nonzero;fill:rgb(100%,100%,100%);fill-opacity:1;" d="M 20.175781 13.71875 L 16.652344 13.71875 L 16.652344 11.148438 C 16.652344 10.910156 16.652344 10.667969 16.492188 10.507812 C 16.25 10.347656 16.011719 10.265625 15.769531 10.265625 L 14.328125 10.265625 C 14.085938 10.265625 13.847656 10.265625 13.605469 10.425781 C 13.445312 10.667969 13.367188 10.910156 13.445312 11.148438 L 13.445312 23.910156 C 13.445312 24.152344 13.445312 24.394531 13.605469 24.554688 C 13.765625 24.714844 14.085938 24.714844 14.328125 24.714844 L 15.769531 24.714844 C 16.011719 24.714844 16.25 24.714844 16.492188 24.554688 C 16.652344 24.394531 16.730469 24.152344 16.652344 23.910156 L 16.652344 19.578125 L 15.046875 19.578125 L 15.046875 17.089844 L 20.175781 17.089844 L 20.175781 24.3125 C 20.175781 26.398438 19.054688 27.363281 16.8125 27.363281 L 13.203125 27.363281 C 10.960938 27.363281 9.839844 26.320312 9.839844 24.3125 L 9.839844 10.75 C 9.839844 8.742188 10.960938 7.699219 13.203125 7.699219 L 16.8125 7.699219 C 19.054688 7.699219 20.175781 8.742188 20.175781 10.75 Z M 20.175781 13.71875 " />
		<use xlink:href="#surface5" />
	</g>
</svg>