<?xml version="1.0" encoding="utf-8"?>
<!-- Generator: Adobe Illustrator 25.0.0, SVG Export Plug-In . SVG Version: 6.00 Build 0)  -->
<svg version="1.1" id="Group_137" xmlns="http://www.w3.org/2000/svg" xmlns:xlink="http://www.w3.org/1999/xlink" x="0px" y="0px" viewBox="0 0 188 46.1" style="enable-background:new 0 0 188 46.1;" xml:space="preserve">
	<style type="text/css">
	.st0{fill:#D22630;}
	.st1{fill:#FFFFFF;}
	.st2{enable-background:new    ;}
	.st3{fill:#006580;}
</style>
	<g id="Group_658" transform="translate(0 0)">
		<g id="Group_35">
			<path id="Path_76" class="st0" d="M18.4,46.1c0,0,18.4-9.2,18.4-23.1V6.9L18.4,0L0,6.9v16.1C0,36.9,18.4,46.1,18.4,46.1z" />
			<g id="Group_34" transform="translate(12.072 9.592)">
				<path id="Path_77" class="st1" d="M12.9,7.5H8.5V4.3c0-0.3,0-0.6-0.2-0.8C8,3.3,7.7,3.2,7.4,3.2H5.6c-0.3,0-0.6,0-0.9,0.2
				C4.5,3.7,4.4,4,4.5,4.3v15.9c0,0.3,0,0.6,0.2,0.8c0.2,0.2,0.6,0.2,0.9,0.2h1.8c0.3,0,0.6,0,0.9-0.2c0.2-0.2,0.3-0.5,0.2-0.8v-5.4
				H6.5v-3.1h6.4v9c0,2.6-1.4,3.8-4.2,3.8H4.2c-2.8,0-4.2-1.3-4.2-3.8V3.8C0,1.3,1.4,0,4.2,0h4.5c2.8,0,4.2,1.3,4.2,3.8L12.9,7.5z" />
			</g>
		</g>
	</g>
</svg>