<?xml version="1.0" encoding="utf-8"?>
<!-- Generator: Adobe Illustrator 25.0.0, SVG Export Plug-In . SVG Version: 6.00 Build 0)  -->
<svg version="1.1" id="Group_137" xmlns="http://www.w3.org/2000/svg" xmlns:xlink="http://www.w3.org/1999/xlink" x="0px" y="0px"
	 viewBox="0 0 188 46.1" style="enable-background:new 0 0 188 46.1;" xml:space="preserve">
<style type="text/css">
	.st0{fill:#D22630;}
	.st1{fill:#FFFFFF;}
	.st2{enable-background:new    ;}
	.st3{fill:#006580;}
</style>
<g id="Group_658" transform="translate(0 0)">
	<g id="Group_35">
		<path id="Path_76" class="st0" d="M18.4,46.1c0,0,18.4-9.2,18.4-23.1V6.9L18.4,0L0,6.9v16.1C0,36.9,18.4,46.1,18.4,46.1z"/>
		<g id="Group_34" transform="translate(12.072 9.592)">
			<path id="Path_77" class="st1" d="M12.9,7.5H8.5V4.3c0-0.3,0-0.6-0.2-0.8C8,3.3,7.7,3.2,7.4,3.2H5.6c-0.3,0-0.6,0-0.9,0.2
				C4.5,3.7,4.4,4,4.5,4.3v15.9c0,0.3,0,0.6,0.2,0.8c0.2,0.2,0.6,0.2,0.9,0.2h1.8c0.3,0,0.6,0,0.9-0.2c0.2-0.2,0.3-0.5,0.2-0.8v-5.4
				H6.5v-3.1h6.4v9c0,2.6-1.4,3.8-4.2,3.8H4.2c-2.8,0-4.2-1.3-4.2-3.8V3.8C0,1.3,1.4,0,4.2,0h4.5c2.8,0,4.2,1.3,4.2,3.8L12.9,7.5z"
				/>
		</g>
	</g>
	<g id="Griffin_Bank" transform="translate(45 7)">
		<g class="st2">
			<path class="st3" d="M9.7,8.5c-2.9,0-5.1,2.3-5.1,6.4c0,4.1,2.1,6.4,5.1,6.4c2.7,0,4.5-1.6,4.5-4.2h-4.2v-2.6h7.4v2.2
				c0,4.7-3.2,7.6-7.7,7.6c-5,0-8.4-3.6-8.4-9.3c0-5.9,3.6-9.4,8.3-9.4c4,0,7.1,2.5,7.7,6.1H14C13.4,9.7,11.9,8.5,9.7,8.5z"/>
			<path class="st3" d="M20.5,10.4h3.1v2.3h0.1c0.5-1.6,1.8-2.5,3.4-2.5c0.4,0,0.9,0,1.2,0.1v3c-0.3-0.1-1-0.2-1.5-0.2
				c-1.8,0-3.1,1.2-3.1,3v8h-3.2V10.4z"/>
			<path class="st3" d="M30.2,6.7c0-1,0.8-1.7,1.9-1.7c1,0,1.9,0.8,1.9,1.7c0,1-0.8,1.7-1.9,1.7C31,8.4,30.2,7.6,30.2,6.7z
				 M30.4,10.4h3.2V24h-3.2V10.4z"/>
			<path class="st3" d="M43.9,12.8H41V24h-3.2V12.8h-2v-2.5h2V9.1c0-2.8,1.9-4.1,4.3-4.1c1.1,0,2,0.2,2.4,0.4l-0.6,2.5
				c-0.3-0.1-0.7-0.2-1.2-0.2c-1.2,0-1.6,0.6-1.6,1.7v1.1h2.8V12.8z"/>
			<path class="st3" d="M53.3,12.8h-2.8V24h-3.2V12.8h-2v-2.5h2V9.1c0-2.8,1.9-4.1,4.3-4.1c1.1,0,2,0.2,2.4,0.4l-0.6,2.5
				c-0.3-0.1-0.7-0.2-1.2-0.2c-1.2,0-1.6,0.6-1.6,1.7v1.1h2.8V12.8z"/>
			<path class="st3" d="M55.6,6.7c0-1,0.8-1.7,1.9-1.7c1,0,1.9,0.8,1.9,1.7c0,1-0.8,1.7-1.9,1.7C56.4,8.4,55.6,7.6,55.6,6.7z
				 M55.8,10.4H59V24h-3.2V10.4z"/>
			<path class="st3" d="M65.5,24h-3.2V10.4h3.1v2.3h0.2c0.6-1.5,2-2.5,4.1-2.5c2.8,0,4.7,1.9,4.7,5.1V24h-3.2v-8.2
				c0-1.8-1-2.9-2.7-2.9c-1.7,0-2.9,1.1-2.9,3.1V24z"/>
			<path class="st3" d="M83.9,5.8h7c3.9,0,5.9,2,5.9,4.7c0,2.2-1.4,3.5-3.2,3.9v0.2c1.9,0.1,3.9,1.7,3.9,4.5c0,2.8-2,5-6.2,5h-7.4
				V5.8z M90.5,13.5c1.7,0,3-1,3-2.6c0-1.4-1-2.4-2.9-2.4h-3.3v5H90.5z M90.8,21.2c2.4,0,3.4-1,3.4-2.5c0-1.6-1.3-2.9-3.3-2.9h-3.6
				v5.3H90.8z"/>
			<path class="st3" d="M99.6,20.2c0-3.1,2.5-3.9,5.2-4.1c2.4-0.3,3.4-0.3,3.4-1.2v-0.1c0-1.3-0.8-2.1-2.3-2.1
				c-1.6,0-2.5,0.8-2.8,1.7l-3-0.4c0.7-2.5,2.9-3.8,5.8-3.8c2.6,0,5.5,1.1,5.5,4.7V24h-3.1v-1.9h-0.1c-0.6,1.1-1.9,2.1-4,2.1
				C101.5,24.3,99.6,22.9,99.6,20.2z M108.1,19.1v-1.6c-0.4,0.3-2.1,0.6-2.9,0.7c-1.4,0.2-2.5,0.7-2.5,2c0,1.2,1,1.8,2.3,1.8
				C106.9,21.9,108.1,20.6,108.1,19.1z"/>
			<path class="st3" d="M117.8,24h-3.2V10.4h3.1v2.3h0.2c0.6-1.5,2-2.5,4.1-2.5c2.8,0,4.7,1.9,4.7,5.1V24h-3.2v-8.2
				c0-1.8-1-2.9-2.7-2.9c-1.7,0-2.9,1.1-2.9,3.1V24z"/>
			<path class="st3" d="M129.8,5.8h3.2v10h0.2l4.9-5.5h3.8l-5.3,5.9l5.6,7.8h-3.8l-4.2-5.8l-1.2,1.3V24h-3.2V5.8z"/>
		</g>
	</g>
</g>
</svg>
