<?xml version="1.0" encoding="UTF-8"?>
<svg xmlns="http://www.w3.org/2000/svg" xmlns:xlink="http://www.w3.org/1999/xlink" width="130pt" height="170pt" viewBox="0 0 130 170" version="1.1">
	<g id="surface1">
		<path style=" stroke:none;fill-rule:nonzero;fill:rgb(82.352941%,14.901961%,18.823529%);fill-opacity:1;" d="M 62.558594 156.738281 C 62.558594 156.738281 125.121094 125.460938 125.121094 78.199219 L 125.121094 23.460938 L 62.558594 0 L 0 23.460938 L 0 78.199219 C 0 125.460938 62.558594 156.738281 62.558594 156.738281 Z M 62.558594 156.738281 " />
		<path style=" stroke:none;fill-rule:nonzero;fill:rgb(100%,100%,100%);fill-opacity:1;" d="M 84.90625 58.113281 L 69.945312 58.113281 L 69.945312 47.234375 C 69.945312 46.210938 69.945312 45.191406 69.265625 44.511719 C 68.246094 43.832031 67.226562 43.492188 66.203125 43.492188 L 60.085938 43.492188 C 59.066406 43.492188 58.042969 43.492188 57.023438 44.171875 C 56.34375 45.191406 56.003906 46.210938 56.34375 47.234375 L 56.34375 101.292969 C 56.34375 102.3125 56.34375 103.332031 57.023438 104.011719 C 57.703125 104.691406 59.066406 104.691406 60.085938 104.691406 L 66.203125 104.691406 C 67.226562 104.691406 68.246094 104.691406 69.265625 104.011719 C 69.945312 103.332031 70.285156 102.3125 69.945312 101.292969 L 69.945312 82.933594 L 63.144531 82.933594 L 63.144531 72.394531 L 84.90625 72.394531 L 84.90625 102.992188 C 84.90625 111.832031 80.144531 115.914062 70.625 115.914062 L 55.324219 115.914062 C 45.804688 115.914062 41.042969 111.492188 41.042969 102.992188 L 41.042969 45.53125 C 41.042969 37.03125 45.804688 32.613281 55.324219 32.613281 L 70.625 32.613281 C 80.144531 32.613281 84.90625 37.03125 84.90625 45.53125 Z M 84.90625 58.113281 " />
	</g>
</svg>